
<svg xmlns="http://www.w3.org/2000/svg" viewBox="0 0 3840 2160">
  <rect x="0" y="0" width="3840" height="2160" fill="#0B1120"/>
  <defs>
    <linearGradient id="g6" x1="0" y1="0" x2="0" y2="2160">
      <stop offset="0%" stop-color="#06B6D415"/>
      <stop offset="100%" stop-color="#06B6D400"/>
    </linearGradient>
  </defs>
  <rect x="0" y="0" width="3840" height="2160" fill="url(#g6)"/>
  
  <rect x="0" y="0" width="3840" height="80" fill="#111827" opacity="0.6"/>
  <text x="60" y="52" font-family="'Helvetica Neue', Helvetica, Arial, sans-serif" font-size="22" font-weight="600" fill="#94A3B8" letter-spacing="4">TAX BREAKDOWN · INDIA 2026</text>
  <text x="3780" y="52" font-family="'Helvetica Neue', Helvetica, Arial, sans-serif" font-size="20" font-weight="700" fill="#F59E0B" text-anchor="end">6/10</text>
  <line x1="60" y1="80" x2="3780" y2="80" stroke="#F59E0B" stroke-width="2" opacity="0.3"/>

  <text x="200" y="400" font-family="'Helvetica Neue', Helvetica, Arial, sans-serif" font-size="220" font-weight="900" fill="#06B6D4">₹5</text>
  <text x="440" y="340" font-family="'Helvetica Neue', Helvetica, Arial, sans-serif" font-size="32" font-weight="400" fill="#94A3B8">out of every ₹100</text>
  <text x="440" y="390" font-family="'Helvetica Neue', Helvetica, Arial, sans-serif" font-size="32" font-weight="400" fill="#94A3B8">for pensions</text>

  <text x="200" y="550" font-family="'Helvetica Neue', Helvetica, Arial, sans-serif" font-size="56" font-weight="800" fill="#F8FAFC">Pensions</text>
  <text x="200" y="610" font-family="'Helvetica Neue', Helvetica, Arial, sans-serif" font-size="28" font-weight="400" fill="#64748B">Government employee retirement benefits</text>
  <line x1="200" y1="650" x2="600" y2="650" stroke="#06B6D4" stroke-width="3"/>

  <g transform="translate(200, 780)">
    <rect x="0" y="40" width="3000" height="60" rx="6" fill="#1E293B"/>
    <rect x="0" y="40" width="150" height="60" rx="6" fill="#06B6D4"/>
    <text x="20" y="78" font-family="'Helvetica Neue', Helvetica, Arial, sans-serif" font-size="24" font-weight="700" fill="#F8FAFC">₹5 — PENSIONS</text>
    <rect x="150" y="40" width="2850" height="60" rx="6" fill="#1E293B" opacity="0.5"/>
  </g>

  <g transform="translate(200, 1000)">
    <rect x="0" y="0" width="1600" height="300" rx="12" fill="#111827" stroke="#1E293B" stroke-width="1"/>
    <text x="40" y="40" font-family="'Helvetica Neue', Helvetica, Arial, sans-serif" font-size="22" font-weight="700" fill="#06B6D4">PENSION LIABILITY GROWTH</text>
    <!-- Simple line chart representation -->
    <polyline points="60,220 200,200 400,180 600,150 800,120 1000,80 1200,50 1400,30"
      fill="none" stroke="#06B6D4" stroke-width="4" stroke-linecap="round"/>
    <circle cx="60" cy="220" r="6" fill="#06B6D4"/><text x="50" y="248" font-family="'Helvetica Neue', Helvetica, Arial, sans-serif" font-size="16" fill="#64748B" text-anchor="middle">2016</text>
    <circle cx="400" cy="180" r="6" fill="#06B6D4"/><text x="400" y="248" font-family="'Helvetica Neue', Helvetica, Arial, sans-serif" font-size="16" fill="#64748B" text-anchor="middle">2020</text>
    <circle cx="800" cy="120" r="6" fill="#06B6D4"/><text x="800" y="248" font-family="'Helvetica Neue', Helvetica, Arial, sans-serif" font-size="16" fill="#64748B" text-anchor="middle">2023</text>
    <circle cx="1400" cy="30" r="6" fill="#06B6D4"/><text x="1400" y="248" font-family="'Helvetica Neue', Helvetica, Arial, sans-serif" font-size="16" fill="#64748B" text-anchor="middle">2026</text>
  </g>

  <g transform="translate(2000, 1000)">
    <rect x="0" y="0" width="1100" height="300" rx="12" fill="#111827" stroke="#1E293B" stroke-width="1"/>
    <text x="40" y="40" font-family="'Helvetica Neue', Helvetica, Arial, sans-serif" font-size="22" font-weight="700" fill="#64748B">KEY INSIGHT</text>
    <text x="40" y="95" font-family="'Helvetica Neue', Helvetica, Arial, sans-serif" font-size="22" fill="#94A3B8">Pension costs have nearly</text>
    <text x="40" y="135" font-family="'Helvetica Neue', Helvetica, Arial, sans-serif" font-size="48" font-weight="900" fill="#EF4444">tripled</text>
    <text x="40" y="180" font-family="'Helvetica Neue', Helvetica, Arial, sans-serif" font-size="22" fill="#94A3B8">in the last decade.</text>
    <text x="40" y="225" font-family="'Helvetica Neue', Helvetica, Arial, sans-serif" font-size="20" fill="#64748B">Old pension scheme (OPS) vs NPS debate ongoing</text>
    <text x="40" y="260" font-family="'Helvetica Neue', Helvetica, Arial, sans-serif" font-size="20" fill="#64748B">Unfunded liability estimated at ₹36L Cr+</text>
  </g>
  
  <rect x="0" y="2100" width="3840" height="60" fill="#111827" opacity="0.4"/>
  <text x="1920" y="2136" font-family="'Helvetica Neue', Helvetica, Arial, sans-serif" font-size="16" fill="#64748B" text-anchor="middle" letter-spacing="2">NEWSJACK · EDITORIAL INFOGRAPHIC</text>
</svg>