
<svg xmlns="http://www.w3.org/2000/svg" viewBox="0 0 3840 2160">
  <rect x="0" y="0" width="3840" height="2160" fill="#0B1120"/>
  <defs>
    <linearGradient id="g9" x1="0" y1="0" x2="0" y2="2160">
      <stop offset="0%" stop-color="#64748B15"/>
      <stop offset="100%" stop-color="#64748B00"/>
    </linearGradient>
  </defs>
  <rect x="0" y="0" width="3840" height="2160" fill="url(#g9)"/>
  
  <rect x="0" y="0" width="3840" height="80" fill="#111827" opacity="0.6"/>
  <text x="60" y="52" font-family="'Helvetica Neue', Helvetica, Arial, sans-serif" font-size="22" font-weight="600" fill="#94A3B8" letter-spacing="4">TAX BREAKDOWN · INDIA 2026</text>
  <text x="3780" y="52" font-family="'Helvetica Neue', Helvetica, Arial, sans-serif" font-size="20" font-weight="700" fill="#F59E0B" text-anchor="end">9/10</text>
  <line x1="60" y1="80" x2="3780" y2="80" stroke="#F59E0B" stroke-width="2" opacity="0.3"/>

  <text x="200" y="400" font-family="'Helvetica Neue', Helvetica, Arial, sans-serif" font-size="220" font-weight="900" fill="#94A3B8">₹12</text>
  <text x="440" y="340" font-family="'Helvetica Neue', Helvetica, Arial, sans-serif" font-size="32" font-weight="400" fill="#94A3B8">out of every ₹100</text>
  <text x="440" y="390" font-family="'Helvetica Neue', Helvetica, Arial, sans-serif" font-size="32" font-weight="400" fill="#94A3B8">for other expenditure</text>

  <text x="200" y="550" font-family="'Helvetica Neue', Helvetica, Arial, sans-serif" font-size="56" font-weight="800" fill="#F8FAFC">Other Expenditure</text>
  <text x="200" y="610" font-family="'Helvetica Neue', Helvetica, Arial, sans-serif" font-size="28" font-weight="400" fill="#64748B">Administration, police, judiciary, & miscellaneous</text>
  <line x1="200" y1="650" x2="600" y2="650" stroke="#64748B" stroke-width="3"/>

  <g transform="translate(200, 780)">
    <rect x="0" y="40" width="3000" height="60" rx="6" fill="#1E293B"/>
    <rect x="0" y="40" width="360" height="60" rx="6" fill="#64748B" opacity="0.7"/>
    <text x="20" y="78" font-family="'Helvetica Neue', Helvetica, Arial, sans-serif" font-size="24" font-weight="700" fill="#F8FAFC">₹12 — OTHER</text>
    <rect x="360" y="40" width="2640" height="60" rx="6" fill="#1E293B" opacity="0.5"/>
  </g>

  <!-- Sub-categories -->
  <g transform="translate(200, 1000)">
    <text x="0" y="30" font-family="'Helvetica Neue', Helvetica, Arial, sans-serif" font-size="22" font-weight="700" fill="#94A3B8">SUB-CATEGORIES</text>
    <rect x="0" y="60" width="3000" height="50" rx="4" fill="#1E293B"/>
    <rect x="0" y="60" width="900" height="50" rx="4" fill="#64748B" opacity="0.5"/>
    <text x="20" y="92" font-family="'Helvetica Neue', Helvetica, Arial, sans-serif" font-size="20" fill="#F8FAFC">Police & Internal Security</text>
    <text x="2900" y="92" font-family="'Helvetica Neue', Helvetica, Arial, sans-serif" font-size="20" font-weight="700" fill="#F8FAFC" text-anchor="end">₹1.6L Cr</text>

    <rect x="0" y="125" width="3000" height="50" rx="4" fill="#1E293B"/>
    <rect x="0" y="125" width="700" height="50" rx="4" fill="#64748B" opacity="0.4"/>
    <text x="20" y="157" font-family="'Helvetica Neue', Helvetica, Arial, sans-serif" font-size="20" fill="#F8FAFC">Judiciary</text>
    <text x="2900" y="157" font-family="'Helvetica Neue', Helvetica, Arial, sans-serif" font-size="20" font-weight="700" fill="#F8FAFC" text-anchor="end">₹0.3L Cr</text>

    <rect x="0" y="190" width="3000" height="50" rx="4" fill="#1E293B"/>
    <rect x="0" y="190" width="1100" height="50" rx="4" fill="#64748B" opacity="0.3"/>
    <text x="20" y="222" font-family="'Helvetica Neue', Helvetica, Arial, sans-serif" font-size="20" fill="#F8FAFC">General Administration & Transfers</text>
    <text x="2900" y="222" font-family="'Helvetica Neue', Helvetica, Arial, sans-serif" font-size="20" font-weight="700" fill="#F8FAFC" text-anchor="end">₹3.8L Cr</text>

    <rect x="0" y="255" width="3000" height="50" rx="4" fill="#1E293B"/>
    <rect x="0" y="255" width="500" height="50" rx="4" fill="#64748B" opacity="0.2"/>
    <text x="20" y="287" font-family="'Helvetica Neue', Helvetica, Arial, sans-serif" font-size="20" fill="#F8FAFC">Miscellaneous</text>
    <text x="2900" y="287" font-family="'Helvetica Neue', Helvetica, Arial, sans-serif" font-size="20" font-weight="700" fill="#F8FAFC" text-anchor="end">₹1.0L Cr</text>
  </g>
  
  <rect x="0" y="2100" width="3840" height="60" fill="#111827" opacity="0.4"/>
  <text x="1920" y="2136" font-family="'Helvetica Neue', Helvetica, Arial, sans-serif" font-size="16" fill="#64748B" text-anchor="middle" letter-spacing="2">NEWSJACK · EDITORIAL INFOGRAPHIC</text>
</svg>